<?xml version="1.0" standalone="no"?>
<!DOCTYPE svg PUBLIC "-//W3C//DTD SVG 20010904//EN"
 "http://www.w3.org/TR/2001/REC-SVG-20010904/DTD/svg10.dtd">
<svg version="1.0" xmlns="http://www.w3.org/2000/svg"
 width="496.000000pt" height="500.000000pt" viewBox="0 0 496.000000 500.000000"
 preserveAspectRatio="xMidYMid meet">

<g transform="translate(0.000000,500.000000) scale(0.100000,-0.100000)"
fill="#000000" stroke="none">
<path d="M1631 4996 c11 -12 162 -55 171 -50 6 4 13 3 17 -2 3 -5 53 -24 111
-42 58 -18 123 -39 145 -46 39 -12 58 -41 38 -55 -13 -8 -33 -68 -33 -100 0
-14 -12 -44 -25 -66 -29 -46 -30 -54 -11 -80 12 -17 16 -17 31 -5 38 32 273 5
283 -32 2 -10 19 -19 44 -23 l40 -7 -5 -41 c-3 -22 -13 -44 -21 -49 -9 -5 -23
-22 -31 -39 l-16 -30 40 -18 c41 -18 93 -71 70 -71 -7 0 -20 7 -30 16 -19 18
-104 27 -167 18 -57 -8 -108 -44 -105 -73 2 -12 -4 -24 -13 -28 -17 -6 -13
-40 12 -99 15 -35 19 -35 74 0 8 6 37 11 65 11 94 4 180 18 217 36 57 29 59
27 57 -52 -2 -56 -7 -77 -24 -98 -12 -14 -25 -34 -28 -45 -11 -27 4 -146 17
-145 27 3 46 -2 46 -12 0 -8 -11 -9 -32 -4 -54 11 -63 11 -62 -5 1 -11 -9 -15
-38 -14 -33 2 -38 -1 -38 -20 0 -30 -18 -46 -51 -46 -25 0 -79 -47 -79 -69 0
-4 -13 -23 -30 -42 -16 -19 -34 -39 -39 -45 -5 -6 -8 -23 -8 -37 2 -26 3 -26
74 -24 61 2 74 -1 86 -17 16 -22 47 -16 47 9 0 8 6 15 13 15 22 0 53 -40 86
-110 24 -51 29 -74 24 -106 -3 -27 0 -51 11 -72 31 -60 13 -96 -36 -72 -13 7
-50 41 -84 77 -52 55 -64 63 -86 58 -32 -8 -89 39 -119 97 -24 47 -33 49 -24
6 13 -62 48 -133 93 -188 52 -65 102 -170 102 -216 0 -18 7 -40 16 -49 27 -26
7 -29 -25 -4 -16 13 -32 36 -36 52 -4 15 -12 27 -20 27 -19 0 -25 36 -8 59 18
26 2 61 -28 61 -11 0 -18 4 -14 9 3 5 1 12 -5 16 -5 3 -10 17 -10 31 0 29 -11
30 -70 3 -65 -29 -79 -51 -73 -118 2 -31 7 -67 10 -81 5 -23 6 -24 14 -5 7 19
8 19 15 -4 7 -24 8 -24 20 11 7 20 11 52 9 70 -2 18 -1 25 1 16 3 -10 11 -18
17 -18 7 0 18 -9 25 -20 7 -12 17 -18 22 -15 5 3 11 -4 15 -15 3 -11 12 -20
20 -20 8 0 17 -9 20 -20 3 -11 13 -20 21 -20 8 0 17 -7 20 -15 4 -8 13 -15 20
-15 8 0 17 -7 21 -16 3 -8 12 -13 20 -10 8 4 17 -4 24 -21 5 -14 12 -23 16
-19 3 3 0 17 -7 31 -7 14 -10 28 -7 32 11 10 35 -28 30 -47 -2 -9 3 -23 13
-31 16 -13 16 -12 5 9 -15 28 -8 40 13 23 8 -7 12 -22 9 -34 -12 -54 24 31 40
95 21 81 36 122 43 115 5 -5 -10 -74 -23 -107 -9 -21 -13 -41 -16 -72 -1 -16
-5 -28 -8 -28 -7 0 -6 5 -14 -120 -7 -104 4 -117 15 -18 l7 63 2 -67 c1 -86
21 -90 22 -5 1 34 4 52 6 40 5 -26 23 -31 23 -8 0 8 5 15 10 15 6 0 10 -5 10
-12 0 -26 12 3 20 49 l8 48 1 -59 c0 -33 4 -56 8 -52 8 7 9 13 11 85 1 24 5
42 8 38 4 -3 6 -80 5 -171 -1 -92 2 -166 6 -166 4 0 9 60 9 133 2 196 3 207
14 207 6 0 11 -21 11 -47 1 -31 3 -37 6 -18 8 70 15 95 24 95 6 0 8 -8 4 -19
-3 -10 -1 -29 4 -42 9 -21 10 -19 12 19 1 23 3 47 4 52 1 6 3 17 4 25 0 8 5
15 9 15 4 0 6 -30 4 -67 -5 -80 3 -82 13 -3 4 30 11 60 17 65 7 7 8 -9 3 -47
-3 -32 -2 -58 2 -58 5 0 9 10 10 23 1 12 5 37 8 55 11 62 20 31 18 -65 l-1
-98 9 94 c11 113 33 163 24 56 -6 -72 6 -74 19 -2 4 20 11 37 15 37 5 0 5 -17
1 -38 -3 -21 -3 -47 1 -58 7 -17 8 -16 9 6 1 14 3 35 6 48 2 12 5 31 7 42 2
11 7 23 11 27 4 5 5 -21 2 -57 -8 -83 10 -61 20 24 5 43 9 55 14 41 4 -11 6
-23 4 -26 -8 -15 -13 -99 -5 -99 7 0 18 51 25 122 1 3 5 10 9 14 5 5 5 -32 1
-81 -7 -99 0 -114 11 -22 12 104 25 120 20 25 -3 -49 -3 -88 -1 -88 2 0 9 33
16 73 17 110 30 126 25 32 l-4 -80 15 80 c20 106 35 119 27 24 -10 -126 8 -68
24 76 3 28 2 47 -2 43 -4 -3 -28 13 -53 38 -26 24 -50 44 -54 44 -5 0 -8 7 -8
16 0 8 -5 12 -10 9 -6 -3 -10 -1 -10 5 0 6 -4 8 -10 5 -5 -3 -10 -2 -10 3 0 5
-9 12 -20 15 -11 3 -24 16 -29 29 -6 12 -10 17 -10 11 -1 -7 -5 -13 -11 -13
-5 0 -7 15 -5 33 l5 32 -15 -32 c-18 -39 -29 -43 -23 -8 3 14 1 25 -3 25 -5 0
-9 -6 -9 -14 0 -16 -18 -31 -26 -23 -8 7 19 47 31 47 5 0 18 18 28 40 10 22
24 40 30 40 8 0 7 -4 -1 -12 -7 -7 -12 -23 -11 -37 1 -25 1 -25 11 4 5 17 12
45 14 64 3 19 9 42 14 52 19 34 11 79 -17 106 l-28 25 -6 -33 c-4 -19 -7 -28
-8 -20 -1 11 -4 10 -15 -4 -7 -10 -20 -16 -28 -12 -19 7 -33 84 -18 103 12 13
8 135 -5 220 -6 39 -5 42 19 46 14 3 27 0 30 -6 3 -7 5 -6 5 2 1 7 -4 22 -10
33 -8 15 -7 26 4 42 8 12 13 30 11 40 -1 10 4 21 12 24 24 9 29 -6 8 -22 -10
-8 -13 -15 -7 -15 10 0 11 -22 6 -92 -5 -80 -4 -91 8 -81 28 23 119 225 119
264 0 15 4 30 8 33 5 3 16 31 26 63 16 54 17 68 3 201 -9 79 -20 148 -25 155
-5 7 -12 33 -14 58 l-5 46 43 -14 c24 -7 65 -20 91 -29 117 -37 446 -123 455
-118 15 9 -12 34 -38 34 -13 0 -24 4 -24 9 0 12 -73 37 -315 107 -279 81 -317
97 -341 142 -19 36 -63 72 -88 72 -8 0 -19 7 -24 16 -5 9 -21 18 -35 19 -30 4
-98 26 -112 37 -5 4 -13 8 -19 8 -5 0 1 -9 14 -20 17 -15 19 -20 7 -20 -8 0
-24 -3 -34 -6 -17 -5 -17 -5 0 6 14 9 15 14 5 23 -23 22 -64 35 -93 30 -22 -5
-26 -3 -20 8 7 11 6 12 -6 3 -14 -12 -44 1 -185 75 -35 18 -45 20 -75 9 -19
-6 -40 -20 -48 -31 -9 -13 -16 -15 -21 -8 -4 8 -15 3 -33 -13 -26 -24 -27 -24
-27 -5 0 11 -4 18 -9 15 -5 -3 -14 0 -20 8 -6 7 -21 14 -34 14 -60 2 -99 11
-115 26 -10 9 -23 16 -29 16 -6 0 -30 9 -54 20 -35 16 -66 20 -153 20 -60 0
-107 -2 -105 -4z m1253 -275 c4 -5 -3 -7 -14 -4 -23 6 -26 13 -6 13 8 0 17 -4
20 -9z m-466 -497 c2 -1 -16 -6 -40 -11 -43 -9 -104 -5 -94 5 16 15 117 20
134 6z m624 -21 c8 -10 18 -25 22 -33 4 -8 0 -6 -8 5 -9 11 -24 26 -33 33 -9
6 -12 12 -6 12 5 0 17 -8 25 -17z m-82 -13 c0 -6 -11 -15 -24 -21 -13 -6 -30
-28 -38 -48 -13 -32 -15 -34 -20 -14 -7 28 37 79 80 92 1 1 2 -4 2 -9z m-326
-18 c2 -4 -13 -6 -35 -4 -21 2 -39 6 -39 8 0 7 69 4 74 -4z m-280 -27 c-4 -8
-10 -13 -15 -10 -4 3 -6 12 -3 20 4 8 10 13 15 10 4 -3 6 -12 3 -20z m648 -51
c11 -39 2 -89 -20 -105 -14 -11 -15 -11 -4 1 16 18 15 50 -1 75 -7 11 -14 30
-14 42 -2 32 29 22 39 -13z m-52 6 c0 -5 -2 -10 -4 -10 -3 0 -8 5 -11 10 -3 6
-1 10 4 10 6 0 11 -4 11 -10z m111 -33 c-10 -9 -11 -8 -5 6 3 10 9 15 12 12 3
-3 0 -11 -7 -18z m-229 -47 c5 0 13 10 18 23 9 22 9 22 9 -3 0 -14 -6 -34 -14
-44 -15 -19 -15 -19 -15 -1 0 36 -21 -1 -26 -44 -2 -22 -7 -42 -11 -43 -14 -5
-15 120 -1 144 l12 23 10 -27 c5 -16 14 -28 18 -28z m108 -60 c-11 -11 -33
-20 -51 -20 -26 0 -28 2 -16 14 12 13 36 20 75 25 6 0 3 -8 -8 -19z m-160
-121 c0 -5 -6 -9 -13 -9 -8 0 -14 -15 -15 -37 -2 -25 -10 -44 -25 -57 -22 -18
-22 -18 -25 3 -2 13 -11 21 -23 21 -24 0 -25 28 -1 46 9 7 27 14 39 14 13 0
28 9 35 19 12 19 28 19 28 0z m-100 -120 c0 -17 -4 -28 -10 -24 -5 3 -10 17
-10 31 0 13 5 24 10 24 6 0 10 -14 10 -31z m240 -309 c0 -5 -2 -10 -4 -10 -3
0 -8 5 -11 10 -3 6 -1 10 4 10 6 0 11 -4 11 -10z m-190 -138 c0 -15 -6 -36
-14 -47 -7 -11 -15 -42 -17 -68 l-4 -48 40 6 c22 4 59 16 83 27 24 11 45 18
48 15 3 -3 -4 -8 -15 -12 -12 -3 -18 -11 -15 -17 4 -7 2 -8 -4 -4 -7 4 -31 -1
-54 -12 -24 -10 -55 -22 -70 -25 -16 -4 -28 -12 -28 -17 0 -5 -6 -7 -14 -4 -7
3 -23 -7 -35 -22 -11 -15 -21 -22 -21 -17 0 6 9 22 20 36 13 16 20 40 20 66 0
41 17 91 31 91 4 0 10 18 14 40 8 47 35 56 35 12z m-410 -234 c0 -12 -6 -9
-26 13 -19 22 -19 22 4 8 12 -8 22 -17 22 -21z m348 -66 c-6 -23 -14 -42 -19
-42 -11 0 -12 14 -2 24 4 3 8 14 9 22 4 24 14 47 19 43 2 -3 -1 -24 -7 -47z
m-43 -37 c-9 -31 -19 -54 -22 -52 -2 3 3 30 12 62 9 31 19 54 22 52 2 -3 -3
-30 -12 -62z m106 42 c-10 -9 -11 -8 -5 6 3 10 9 15 12 12 3 -3 0 -11 -7 -18z
m-46 -56 c-9 -28 -21 -51 -27 -51 -7 0 -7 4 0 13 5 6 16 31 23 55 7 23 14 40
17 38 2 -3 -4 -27 -13 -55z m35 9 c0 -5 -5 -10 -11 -10 -5 0 -7 5 -4 10 3 6 8
10 11 10 2 0 4 -4 4 -10z m-85 -70 c-9 -28 -19 -50 -21 -48 -2 2 4 27 13 56 9
28 19 50 21 47 2 -2 -4 -27 -13 -55z m252 38 c-3 -8 -6 -5 -6 6 -1 11 2 17 5
13 3 -3 4 -12 1 -19z m69 -15 c-11 -11 -17 4 -9 23 7 18 8 18 11 1 2 -10 1
-21 -2 -24z m-346 -17 c0 -3 -4 -8 -10 -11 -5 -3 -10 -1 -10 4 0 6 5 11 10 11
6 0 10 -2 10 -4z m42 -28 c-7 -7 -12 -8 -12 -2 0 6 3 14 7 17 3 4 9 5 12 2 2
-3 -1 -11 -7 -17z m-53 -5 c0 -5 -4 -17 -9 -28 -8 -18 -9 -17 -9 8 -1 15 4 27
9 27 6 0 10 -3 9 -7z m51 -17 c0 -3 -4 -8 -10 -11 -5 -3 -10 -1 -10 4 0 6 5
11 10 11 6 0 10 -2 10 -4z"/>
<path d="M2680 3790 c0 -5 5 -10 10 -10 6 0 10 5 10 10 0 6 -4 10 -10 10 -5 0
-10 -4 -10 -10z"/>
<path d="M3700 4382 c0 -12 19 -26 26 -19 2 2 -2 10 -11 17 -9 8 -15 8 -15 2z"/>
<path d="M3795 4350 c3 -5 11 -10 16 -10 6 0 7 5 4 10 -3 6 -11 10 -16 10 -6
0 -7 -4 -4 -10z"/>
<path d="M3880 4325 c0 -2 18 -14 39 -25 22 -10 41 -25 44 -32 4 -10 8 -10 16
2 13 19 6 27 -36 45 -35 15 -63 19 -63 10z"/>
<path d="M4840 4218 c0 -2 -3 -56 -5 -120 -4 -88 -1 -125 10 -150 8 -18 15
-26 15 -18 1 8 3 48 5 89 5 81 21 111 62 111 20 0 23 5 23 39 0 26 -5 41 -16
45 -15 6 -94 9 -94 4z"/>
<path d="M1981 4181 c-10 -17 -6 -19 29 -23 47 -4 51 6 10 27 -27 14 -30 14
-39 -4z"/>
<path d="M2020 4130 c0 -5 -7 -10 -15 -10 -19 0 -19 -17 0 -50 9 -15 14 -19
15 -10 0 12 2 13 9 1 10 -15 15 -8 25 32 4 18 2 27 -5 27 -7 0 -9 3 -6 6 4 4
13 1 22 -6 17 -14 31 -8 20 9 -8 14 -65 14 -65 1z"/>
<path d="M2163 4002 c13 -15 15 -26 8 -61 -1 -2 -7 1 -13 7 -33 27 -88 10 -88
-27 0 -9 16 -27 36 -40 19 -13 39 -33 45 -43 7 -13 21 -18 52 -17 23 0 36 3
30 6 -18 7 -16 48 2 63 38 32 -6 130 -59 130 -27 0 -28 -1 -13 -18z"/>
<path d="M4846 3855 c-3 -8 -1 -15 4 -15 6 0 10 7 10 15 0 8 -2 15 -4 15 -2 0
-6 -7 -10 -15z"/>
<path d="M2206 3794 c-9 -8 -26 -15 -39 -14 -37 3 -49 1 -42 -10 3 -6 -4 -14
-17 -19 -18 -8 -11 -10 34 -10 45 -1 56 -4 52 -15 -6 -17 12 -31 21 -16 3 5
15 10 25 10 24 0 80 32 80 46 0 17 -46 44 -74 44 -13 0 -32 -7 -40 -16z"/>
<path d="M4853 3535 c0 -33 2 -45 4 -27 2 18 2 45 0 60 -2 15 -4 0 -4 -33z"/>
<path d="M3012 3350 c0 -14 2 -19 5 -12 2 6 2 18 0 25 -3 6 -5 1 -5 -13z"/>
<path d="M2988 3247 c-3 -19 -2 -25 4 -19 6 6 8 18 6 28 -3 14 -5 12 -10 -9z"/>
<path d="M4864 3160 c0 -58 1 -81 3 -52 2 28 2 76 0 105 -2 28 -3 5 -3 -53z"/>
<path d="M3249 3085 c-3 -5 -6 -35 -7 -65 -1 -46 0 -51 9 -30 10 25 9 113 -2
95z"/>
<path d="M3281 3070 c-2 -14 -5 -38 -7 -54 -2 -20 0 -26 7 -19 6 6 9 30 6 54
-2 25 -5 33 -6 19z"/>
<path d="M3177 3066 c-7 -18 3 -56 14 -56 5 0 9 -9 9 -19 0 -41 18 -29 24 16
8 63 8 75 -4 68 -5 -3 -10 -17 -10 -31 0 -13 -4 -24 -8 -24 -5 0 -7 14 -4 30
4 30 -11 42 -21 16z"/>
<path d="M3313 3040 c0 -25 2 -35 4 -22 2 12 2 32 0 45 -2 12 -4 2 -4 -23z"/>
<path d="M3342 3030 c0 -14 2 -19 5 -12 2 6 2 18 0 25 -3 6 -5 1 -5 -13z"/>
<path d="M3375 3000 c-3 -5 -1 -10 4 -10 6 0 11 5 11 10 0 6 -2 10 -4 10 -3 0
-8 -4 -11 -10z"/>
<path d="M3196 2889 c-9 -90 -6 -137 5 -69 16 98 18 130 10 130 -4 0 -11 -28
-15 -61z"/>
<path d="M3369 2915 c-6 -40 -4 -53 7 -43 3 3 4 23 2 44 l-3 39 -6 -40z"/>
<path d="M3406 2923 c-14 -70 -17 -108 -8 -93 11 17 27 120 19 120 -3 0 -8
-12 -11 -27z"/>
<path d="M3435 2907 c-10 -63 -2 -78 11 -22 6 24 7 50 3 57 -4 6 -10 -9 -14
-35z"/>
<path d="M3476 2942 c-12 -19 -18 -82 -7 -82 6 0 11 12 12 28 0 15 2 35 4 45
3 18 0 22 -9 9z"/>
<path d="M3506 2934 c-7 -17 -8 -90 -2 -83 6 6 17 99 12 99 -2 0 -7 -7 -10
-16z"/>
<path d="M3536 2928 c-7 -30 -8 -83 0 -75 7 7 17 97 11 97 -3 0 -7 -10 -11
-22z"/>
<path d="M3236 2923 c-9 -35 -16 -148 -7 -128 9 23 24 145 17 145 -3 0 -7 -8
-10 -17z"/>
<path d="M3337 2911 c-4 -18 -7 -48 -6 -65 1 -26 3 -24 10 14 5 25 8 54 6 65
-2 14 -5 9 -10 -14z"/>
<path d="M3569 2923 c0 -10 -2 -28 -5 -41 -2 -13 0 -21 5 -18 12 8 20 66 9 72
-4 3 -8 -3 -9 -13z"/>
<path d="M3633 2919 c-1 -10 2 -19 8 -19 11 0 12 27 1 34 -4 2 -9 -4 -9 -15z"/>
<path d="M3306 2921 c-3 -5 -8 -33 -11 -63 -4 -34 -2 -48 4 -38 8 14 22 110
15 110 -2 0 -5 -4 -8 -9z"/>
<path d="M3600 2901 c0 -17 2 -31 4 -31 8 0 13 51 5 56 -5 3 -9 -9 -9 -25z"/>
<path d="M3671 2914 c0 -11 3 -14 6 -6 3 7 2 16 -1 19 -3 4 -6 -2 -5 -13z"/>
<path d="M3266 2897 c-7 -26 -8 -102 -1 -96 2 3 7 24 10 48 3 24 7 47 10 51 3
5 1 11 -4 14 -5 3 -11 -4 -15 -17z"/>
<path d="M3360 2835 c0 -14 2 -25 4 -25 2 0 6 11 8 25 3 14 1 25 -3 25 -5 0
-9 -11 -9 -25z"/>
<path d="M3731 2834 c0 -11 3 -14 6 -6 3 7 2 16 -1 19 -3 4 -6 -2 -5 -13z"/>
<path d="M3655 2745 c-13 -132 -21 -165 -36 -165 -6 0 -8 4 -4 10 10 16 22
140 13 140 -4 0 -8 -15 -8 -32 0 -42 -10 -78 -21 -78 -4 0 -5 17 -2 38 5 35 5
36 -10 17 l-16 -20 -1 20 c0 17 -2 17 -10 5 -5 -8 -9 -26 -9 -40 1 -17 3 -19
6 -7 2 9 9 17 15 17 5 0 7 -7 4 -16 -3 -9 -6 -20 -6 -25 0 -6 -4 -7 -10 -4 -6
4 -10 -7 -10 -24 0 -17 5 -31 11 -31 6 0 8 9 4 23 -6 18 -5 20 6 10 8 -9 12
-35 11 -79 -1 -44 2 -63 9 -59 6 4 8 13 5 21 -3 8 -1 14 4 14 16 0 15 -88 0
-104 -4 -4 -7 0 -7 10 1 11 -4 18 -10 16 -7 -1 -13 5 -13 14 0 10 -6 14 -15
10 -9 -3 -15 0 -15 9 0 21 -18 19 -23 -2 -4 -14 -5 -12 -6 5 0 12 -5 22 -10
22 -14 0 -21 -40 -11 -63 8 -21 9 -21 10 -2 1 17 2 18 8 3 9 -22 3 -138 -7
-138 -4 0 -6 26 -3 58 2 31 1 53 -4 49 -8 -8 -10 -27 -13 -104 -1 -18 -4 -33
-8 -33 -5 0 -7 55 -5 122 2 68 1 120 -2 117 -3 -3 -8 -56 -10 -118 -3 -63 -8
-116 -11 -119 -3 -3 -5 7 -5 21 0 15 -4 27 -10 27 -5 0 -10 -10 -10 -22 0 -12
-3 -19 -6 -15 -4 3 -6 52 -5 109 1 56 -1 99 -5 96 -7 -8 -12 -67 -13 -172 -1
-100 -13 -73 -18 41 -2 54 -6 99 -9 102 -2 2 -4 -40 -5 -95 -1 -127 -6 -204
-13 -211 -3 -4 -6 65 -6 152 0 177 -8 207 -11 45 -3 -142 -16 -194 -18 -71 0
52 -3 92 -5 90 -3 -2 -8 -46 -12 -98 -10 -146 -22 -160 -19 -23 1 67 -1 125
-6 128 -5 3 -9 -43 -10 -103 0 -59 -4 -117 -9 -128 -7 -15 -9 -10 -9 23 -1 23
-6 42 -11 42 -6 0 -10 -6 -9 -12 4 -31 -2 -88 -9 -88 -4 0 -6 32 -5 70 1 39
-1 70 -6 70 -4 0 -9 -26 -10 -57 -1 -66 -10 -113 -19 -113 -4 0 -6 71 -4 157
2 87 1 155 -1 153 -4 -4 -18 -247 -19 -327 0 -13 -4 -23 -10 -23 -6 0 -7 35
-4 90 3 54 1 90 -5 90 -5 0 -9 -15 -9 -32 -1 -70 -13 -184 -21 -198 -4 -8 -6
27 -3 79 2 52 1 92 -3 88 -8 -8 -10 -29 -14 -108 -1 -31 -8 -67 -16 -80 -14
-23 -14 -23 -9 14 3 20 1 37 -3 37 -12 0 -20 -120 -10 -145 7 -18 8 -18 9 5
l2 25 8 -25 c12 -36 12 -120 0 -120 -5 0 -10 6 -10 13 -1 7 -6 5 -14 -5 -14
-19 -32 -25 -21 -8 3 6 1 10 -4 10 -6 0 -11 -4 -11 -10 0 -21 -20 -9 -21 13
-1 16 -2 18 -6 5 -6 -26 -31 -22 -36 5 l-4 22 -2 -22 c0 -13 -6 -23 -12 -23
-8 0 -9 18 -5 55 3 33 2 55 -4 55 -6 0 -11 -18 -11 -40 -2 -53 -3 -57 -13 -67
-5 -4 -6 26 -2 72 3 44 2 86 -3 94 -6 9 -10 -15 -12 -67 -4 -72 -11 -103 -23
-91 -2 2 -1 24 3 49 3 25 3 63 0 85 l-6 40 -2 -35 c-2 -44 -20 -78 -22 -40
l-1 25 -9 -27 c-7 -18 -15 -25 -25 -21 -10 4 -15 0 -14 -8 4 -28 0 -49 -11
-49 -5 0 -7 5 -4 10 3 6 2 10 -3 10 -6 0 -13 -12 -17 -27 -7 -26 -8 -26 -15
-8 l-9 20 -1 -20 c-3 -50 1 -276 6 -332 4 -43 2 -63 -5 -63 -7 0 -11 31 -12
88 -1 105 -6 183 -14 190 -4 4 -8 -24 -7 -48 10 -191 11 -300 3 -300 -5 0 -12
10 -14 23 l-4 22 -2 -22 c-1 -29 -17 -29 -26 0 l-7 22 -7 -25 c-4 -14 -12 -24
-18 -23 -5 1 -10 -16 -11 -38 l-2 -40 59 2 58 2 -3 63 c-1 35 2 64 7 64 5 0 9
-27 9 -60 0 -33 4 -60 9 -60 5 0 8 64 6 150 -2 87 0 150 6 150 5 0 9 -16 9
-35 0 -19 5 -35 11 -35 14 0 7 182 -8 187 -7 3 -9 -14 -6 -52 3 -33 1 -55 -5
-55 -10 0 -20 102 -13 135 2 15 5 15 12 4 6 -10 9 -5 9 16 l0 30 16 -30 c18
-35 30 -48 21 -22 -4 9 -2 17 3 17 6 0 10 -5 10 -11 0 -5 4 -8 9 -5 5 3 7 16
4 29 -3 14 1 11 13 -11 9 -18 20 -30 23 -25 8 10 32 10 49 0 7 -5 12 -3 12 4
0 6 9 1 19 -12 l20 -24 -5 25 c-3 17 3 10 20 -20 l25 -45 -5 35 c-4 32 -3 33
7 13 14 -27 31 -31 23 -5 -3 9 4 2 16 -15 23 -34 43 -140 28 -149 -4 -3 -8 5
-9 18 -1 32 -9 82 -15 87 -2 2 -4 -19 -4 -47 0 -29 -4 -52 -10 -52 -5 0 -10
23 -10 50 0 28 -4 50 -9 50 -5 0 -9 -36 -9 -81 0 -102 -11 -117 -14 -18 -1 93
-2 96 -11 105 -4 4 -7 -5 -7 -19 0 -15 -4 -27 -10 -27 -5 0 -10 12 -10 26 0
14 -4 23 -8 20 -5 -3 -6 -43 -4 -89 3 -55 0 -87 -7 -91 -7 -5 -11 6 -11 33 0
23 -4 41 -9 41 -5 0 -8 -15 -8 -32 0 -61 -3 -78 -13 -78 -5 0 -7 6 -5 13 3 6
1 26 -4 42 -9 29 -9 29 -10 -12 -1 -42 -21 -63 -21 -23 0 11 -4 20 -10 20 -5
0 -9 -8 -8 -17 3 -44 -2 -62 -17 -57 -12 5 -15 -3 -15 -37 1 -39 2 -42 14 -27
7 10 18 18 25 18 6 0 11 8 11 18 1 16 1 16 14 -1 19 -25 26 -21 27 16 1 25 4
20 12 -23 11 -54 12 -54 15 -17 3 35 22 54 22 22 0 -8 5 -15 11 -15 6 0 9 7 6
15 -4 8 -2 17 3 20 6 4 10 -3 10 -14 0 -12 5 -21 10 -21 6 0 10 10 10 23 1 21
1 22 15 3 13 -18 15 -18 15 -2 0 10 6 16 17 14 10 -2 18 3 19 10 3 27 6 26 20
-8 l14 -35 -3 33 c-4 37 11 55 20 23 3 -12 9 -21 13 -21 5 0 6 9 3 20 -3 11 0
20 6 20 6 0 11 -8 12 -17 0 -10 3 -30 5 -45 2 -14 0 -29 -6 -33 -6 -3 -10 4
-11 17 -1 17 -5 12 -14 -17 -9 -28 -14 -33 -14 -17 -1 28 -21 29 -21 1 0 -15
-5 -19 -15 -15 -10 4 -15 -1 -15 -14 0 -11 -4 -20 -10 -20 -5 0 -10 8 -10 17
0 31 -11 6 -16 -38 -7 -55 -14 -63 -14 -16 0 47 -16 49 -18 3 -1 -26 5 -38 23
-50 14 -9 25 -14 25 -12 0 3 26 -10 58 -28 71 -42 102 -52 102 -34 0 7 9 2 19
-11 l19 -25 -5 30 -5 29 21 -25 c23 -28 26 -24 11 14 -5 14 -6 26 -1 26 5 0
12 -11 15 -25 4 -14 10 -25 15 -25 17 0 34 50 28 89 -3 24 -1 39 4 35 5 -3 10
3 10 13 2 24 5 49 15 102 4 26 3 42 -2 38 -5 -3 -10 5 -10 18 -1 16 2 22 12
18 11 -4 14 5 14 39 0 45 29 280 35 286 2 2 13 1 25 -3 18 -6 21 -12 16 -43
-10 -61 -29 -293 -40 -487 -6 -99 -14 -125 -43 -136 -34 -13 -41 -11 -46 9 -4
16 -5 16 -6 0 -1 -19 -21 -26 -21 -8 0 6 -5 10 -10 10 -7 0 -7 -6 0 -20 6 -12
21 -20 36 -20 14 0 34 -5 45 -10 23 -13 26 -60 4 -60 -8 0 -15 -9 -15 -20 0
-24 -11 -29 -63 -33 -33 -3 -37 -1 -37 19 0 14 -8 25 -21 29 -11 4 -24 18 -29
31 -7 18 -17 24 -39 24 -16 0 -33 4 -36 10 -9 15 -61 12 -75 -5 -18 -22 -29
-18 -24 8 5 28 -30 49 -61 36 -11 -4 -55 -5 -97 -2 -66 5 -78 3 -84 -11 -3 -9
-14 -16 -24 -16 -10 0 -25 -7 -34 -15 -25 -26 -46 -19 -46 16 0 28 -3 31 -22
25 -13 -3 -61 -9 -108 -12 -47 -4 -88 -12 -92 -18 -5 -8 -8 -7 -8 2 0 7 -14
12 -34 12 -25 0 -38 -6 -50 -24 -8 -14 -25 -27 -36 -31 -11 -4 -18 -11 -15
-16 4 -5 2 -9 -4 -9 -6 0 -10 -27 -10 -67 1 -81 -8 -121 -33 -147 -20 -22 -18
-32 18 -111 21 -48 73 -115 88 -115 4 0 20 -9 35 -21 42 -31 202 -76 311 -88
60 -6 63 -7 41 -20 -22 -12 -70 -19 -138 -20 -18 -1 -43 -11 -60 -25 -25 -21
-33 -23 -78 -15 -121 21 -145 22 -145 9 0 -8 10 -24 22 -37 20 -22 20 -24 4
-42 -17 -18 -17 -19 3 -26 24 -7 27 -23 6 -31 -8 -3 -29 6 -46 20 -18 15 -48
36 -68 47 -20 10 -56 34 -81 52 -25 18 -67 39 -95 46 -27 7 -57 15 -67 17 -9
3 -36 20 -60 39 -23 19 -46 35 -49 35 -4 0 -10 -10 -14 -23 -6 -20 -8 -19 -18
15 -18 57 -31 59 -23 4 3 -28 11 -53 16 -56 19 -12 -8 -60 -85 -155 -41 -50
-81 -108 -90 -128 l-15 -37 1129 0 1130 0 -16 38 c-26 62 -155 316 -169 332
-9 11 -13 41 -11 95 1 61 -3 90 -17 123 -11 23 -17 45 -14 48 3 3 36 12 73 19
37 8 102 32 144 53 67 34 81 38 114 30 45 -10 85 7 134 57 30 31 32 36 26 87
-3 29 -16 75 -29 101 -13 27 -24 54 -24 60 0 6 -20 32 -45 57 -31 31 -42 49
-36 59 5 7 14 10 21 6 9 -6 9 -9 -1 -16 -7 -4 -10 -12 -5 -16 5 -4 11 -2 13 5
7 20 25 14 19 -6 -4 -12 1 -26 14 -37 11 -10 20 -13 20 -7 0 7 5 12 11 12 6 0
8 -9 4 -22 -5 -19 -4 -20 5 -8 10 12 11 11 7 -7 -3 -15 -1 -20 8 -17 17 7 31
-36 16 -46 -7 -3 -9 -14 -5 -23 3 -9 10 -14 15 -11 9 5 11 -7 12 -53 0 -13 4
-23 8 -23 11 0 11 64 0 113 -5 21 -5 37 0 37 5 0 9 -12 10 -27 0 -16 4 -37 9
-48 6 -14 8 -6 4 25 -3 33 -2 40 5 25 9 -18 10 -17 10 8 1 15 -6 41 -14 57 -8
16 -12 37 -8 47 4 12 -1 10 -14 -7 -12 -14 -25 -21 -29 -17 -5 4 -2 12 6 17 8
5 11 12 7 17 -7 7 -20 -6 -31 -32 -3 -6 -10 -3 -16 5 -9 11 -13 12 -17 3 -6
-17 -20 -16 -26 1 -4 10 -1 13 9 9 10 -4 15 0 14 8 -4 28 0 39 15 39 8 0 15
-4 15 -10 0 -5 5 -10 12 -10 16 0 -31 49 -64 66 -34 17 -35 17 -42 -2 -4 -11
-1 -14 12 -10 24 7 54 -17 46 -38 -8 -20 -13 -20 -44 4 -25 20 -45 26 -36 12
8 -13 -11 -35 -23 -28 -11 7 5 56 19 56 6 0 30 44 30 55 0 3 -5 5 -11 5 -5 0
-7 -4 -4 -10 3 -5 2 -10 -3 -10 -5 0 -12 -10 -15 -21 -5 -17 -11 -20 -32 -15
-18 5 -27 2 -31 -9 -4 -8 -10 -15 -15 -15 -5 0 -3 13 6 30 9 17 11 30 5 30 -5
0 -10 -4 -10 -10 0 -5 -8 -10 -17 -10 -16 0 -16 1 -2 16 17 16 74 10 63 -7 -3
-5 2 -6 10 -3 16 6 30 34 21 43 -3 3 -10 -1 -15 -9 -13 -22 -23 -5 -11 18 8
15 8 21 -1 24 -13 5 7 48 22 48 14 0 12 -18 -2 -23 -7 -2 -9 -8 -5 -13 5 -5
14 -1 22 9 9 13 20 16 39 11 14 -3 23 -10 20 -15 -3 -5 -1 -9 4 -9 8 0 22 22
22 35 0 2 -13 6 -30 10 -16 4 -33 11 -36 17 -4 6 2 8 17 3 13 -3 32 -9 42 -12
10 -2 17 -1 16 4 -4 21 2 33 17 33 10 0 14 -5 10 -16 -3 -8 -2 -12 4 -9 16 10
50 -5 50 -21 0 -17 26 -19 36 -2 4 7 -6 23 -27 41 -21 19 -27 27 -14 22 11 -3
29 -9 40 -11 26 -5 68 -50 91 -99 12 -27 20 -34 22 -23 2 9 -3 29 -11 45 -8
15 -12 33 -10 40 9 24 -61 128 -79 117 -4 -3 -8 1 -8 10 0 8 -3 22 -7 32 -5
14 -3 16 10 11 15 -6 16 -3 7 13 -9 17 -8 19 7 13 14 -6 14 -2 -5 21 -16 21
-22 44 -24 85 l-1 56 -6 -45 c-3 -25 -9 -44 -13 -42 -18 5 -39 1 -33 -7 3 -6
14 -8 25 -6 11 2 20 0 20 -6 0 -5 -6 -9 -14 -9 -8 0 -18 -5 -22 -12 -5 -8 0
-9 14 -6 12 4 25 2 28 -3 3 -5 0 -9 -6 -9 -7 0 -9 -9 -6 -22 3 -13 3 -17 0
-10 -3 6 -12 12 -20 12 -9 0 -13 -4 -9 -9 3 -5 1 -12 -5 -16 -5 -3 -10 3 -10
14 0 14 -5 19 -15 15 -10 -4 -15 0 -15 15 0 12 -4 21 -9 21 -5 0 -7 -10 -4
-22 3 -13 2 -19 -3 -15 -12 12 -17 60 -4 52 13 -8 14 -9 -13 71 -38 112 -40
124 -19 124 14 0 23 -15 36 -57 20 -63 45 -116 46 -95 0 7 -7 29 -15 49 -18
42 -18 43 -5 43 5 0 9 -3 8 -7 -1 -7 7 -29 26 -73 3 -8 4 0 1 19 -3 19 -12 48
-20 64 -17 35 -18 40 -6 32 5 -3 17 -28 26 -56 9 -28 19 -48 22 -45 7 6 -36
138 -49 151 -7 7 -8 2 -3 -12 3 -13 4 -23 0 -23 -3 0 -10 10 -16 23 -7 17 -8
13 -5 -23 4 -31 2 -39 -4 -25 -5 11 -9 37 -9 59 -1 29 -4 37 -15 33 -10 -4
-16 2 -19 16 -2 12 -5 2 -7 -23 -2 -38 -3 -41 -10 -20 -7 22 -8 21 -9 -12 -1
-20 11 -74 25 -118 24 -77 27 -121 4 -69 -10 23 -10 23 -6 2 2 -13 1 -23 -3
-23 -8 0 -37 83 -46 132 -5 26 -11 35 -21 31 -10 -4 -14 3 -14 21 0 17 5 26
16 26 14 0 15 9 10 58 l-6 57 14 -40 c12 -35 14 -37 15 -13 1 36 -8 58 -25 58
-8 0 -14 7 -14 15 0 8 -9 15 -19 15 -10 0 -22 7 -25 16 -3 8 -11 12 -17 9 -5
-4 -17 1 -25 11 -15 18 -15 18 -10 1 8 -25 -13 -11 -24 17 -7 17 -9 17 -9 4
-1 -10 -6 -18 -12 -18 -5 0 -8 4 -4 9 3 5 1 12 -4 15 -5 4 -12 2 -16 -4 -3 -5
-12 -10 -18 -10 -7 0 -1 9 12 19 13 10 32 16 42 14 22 -6 41 33 32 66 -7 28 5
27 18 -1 8 -19 9 -15 5 20 -4 40 6 56 18 30 3 -7 5 2 3 20 -4 40 9 42 18 3 4
-21 11 -28 22 -24 10 4 11 8 3 13 -6 4 -13 24 -15 46 l-5 39 14 -35 c11 -27
15 -30 15 -13 1 12 -3 33 -9 47 -6 16 -6 27 0 31 6 4 10 -1 10 -9 0 -9 5 -16
11 -16 7 0 8 7 4 18 -3 9 -8 31 -11 47 l-4 30 14 -30 c13 -25 15 -27 16 -9 0
12 -7 40 -15 63 -8 22 -10 41 -6 41 4 0 13 -15 19 -32 l12 -33 -4 35 c-2 19
-9 48 -15 64 -10 24 -14 27 -24 16 -9 -10 -9 -13 1 -17 6 -3 12 -9 12 -15 0
-6 -9 -3 -20 7 -20 19 -28 41 -10 30 15 -9 12 16 -5 45 l-15 25 5 -30 c4 -24
0 -19 -19 20 -14 28 -25 47 -25 44 -2 -12 39 -123 50 -136 7 -7 9 -16 5 -20
-11 -11 -34 29 -51 90 -15 55 -34 70 -43 36 -3 -11 -2 -11 7 1 9 13 11 13 11
-2 0 -9 -5 -18 -11 -20 -7 -2 -7 -12 -1 -28 16 -43 23 -80 15 -79 -20 3 -23
-2 -13 -21 6 -11 7 -20 3 -20 -5 0 -14 14 -20 31 -10 27 -10 30 4 25 11 -5 14
-2 9 10 -3 8 -6 20 -6 25 0 5 -4 9 -10 9 -5 0 -7 -7 -4 -15 12 -31 -6 -13 -26
26 -13 25 -18 48 -14 62 6 20 6 20 -10 4 -10 -9 -15 -21 -12 -25 3 -5 1 -24
-4 -42 -9 -31 4 -80 17 -66 3 3 0 12 -7 21 -7 9 -10 18 -7 21 3 3 12 -7 21
-23 8 -15 15 -21 15 -13 0 8 -6 24 -14 34 -8 11 -15 27 -15 35 0 26 31 -26 46
-77 15 -49 11 -70 -6 -31 -8 20 -9 16 -6 -21 3 -25 3 -37 0 -27 -3 9 -10 17
-15 17 -6 0 -8 -8 -4 -19 4 -13 0 -20 -15 -24 -11 -3 -20 -1 -20 4 0 5 5 9 10
9 6 0 10 8 10 18 0 14 -2 15 -10 2 -8 -12 -10 -11 -10 8 0 12 -4 22 -10 22 -5
0 -7 -7 -4 -15 4 -8 1 -15 -5 -15 -15 0 -14 57 2 63 7 3 5 6 -5 6 -10 1 -24
13 -31 27 -9 17 -17 23 -21 15 -4 -6 -3 -11 2 -11 13 0 23 -38 12 -45 -5 -3
-11 1 -13 7 -4 10 -8 9 -17 -2 -11 -16 -11 -16 4 80 6 35 6 35 -7 -4 -21 -61
-38 -58 -22 4 7 28 17 79 20 113 4 34 10 78 14 97 4 20 5 44 1 55 -4 11 -11
-21 -18 -80 -7 -55 -21 -129 -32 -165 -18 -59 -20 -61 -15 -20 8 64 12 85 20
109 3 12 2 21 -2 21 -5 0 -15 -27 -21 -60 -7 -33 -17 -60 -22 -60 -5 0 -5 13
0 31 12 42 33 225 27 241 -2 7 -8 -18 -12 -57z m307 -292 c5 -6 5 -13 0 -17
-5 -3 -14 12 -21 33 -14 47 -13 67 1 26 6 -16 15 -35 20 -42z m-22 -23 c0 -5
-2 -10 -4 -10 -3 0 -8 5 -11 10 -3 6 -1 10 4 10 6 0 11 -4 11 -10z m70 0 c0
-5 -2 -10 -4 -10 -3 0 -8 5 -11 10 -3 6 -1 10 4 10 6 0 11 -4 11 -10z m-26
-25 c3 -8 1 -15 -4 -15 -6 0 -10 7 -10 15 0 8 2 15 4 15 2 0 6 -7 10 -15z
m-74 -30 c11 -13 10 -14 -4 -9 -9 3 -16 10 -16 15 0 13 6 11 20 -6z m47 -17
c-3 -7 -5 -2 -5 12 0 14 2 19 5 13 2 -7 2 -19 0 -25z m-330 0 c-3 -8 -6 -5 -6
6 -1 11 2 17 5 13 3 -3 4 -12 1 -19z m-61 0 c5 -8 2 -9 -9 -5 -14 5 -17 0 -17
-34 0 -22 -4 -38 -9 -35 -7 5 -8 38 -2 79 2 11 29 8 37 -5z m198 -10 c-4 -13
-11 -41 -15 -63 l-6 -40 -2 43 c-1 40 12 82 25 82 3 0 2 -10 -2 -22z m236 12
c0 -5 -2 -10 -4 -10 -3 0 -8 5 -11 10 -3 6 -1 10 4 10 6 0 11 -4 11 -10z
m-200 -14 c0 -8 -7 -16 -15 -20 -8 -3 -15 -1 -15 4 0 6 5 10 11 10 5 0 7 5 4
10 -3 6 -1 10 4 10 6 0 11 -6 11 -14z m90 0 c0 -3 -4 -8 -10 -11 -5 -3 -10 -1
-10 4 0 6 5 11 10 11 6 0 10 -2 10 -4z m-310 -34 c-26 -4 -26 -22 0 -22 11 0
20 -4 20 -9 0 -6 -9 -8 -21 -6 -17 3 -20 0 -16 -15 3 -11 1 -18 -4 -14 -5 3
-9 -3 -9 -12 0 -10 -2 -15 -5 -12 -3 3 -3 30 1 60 6 54 7 55 30 44 22 -10 22
-11 4 -14z m260 -19 c0 -25 -15 -12 -17 14 -1 19 1 22 8 12 5 -8 9 -20 9 -26z
m-60 7 c0 -5 -4 -10 -10 -10 -5 0 -10 5 -10 10 0 6 5 10 10 10 6 0 10 -4 10
-10z m27 -47 c-3 -10 -5 -4 -5 12 0 17 2 24 5 18 2 -7 2 -21 0 -30z m-22 18
c3 -5 1 -12 -5 -16 -5 -3 -10 1 -10 9 0 18 6 21 15 7z m-258 -38 c-3 -10 -5
-4 -5 12 0 17 2 24 5 18 2 -7 2 -21 0 -30z m-30 -30 c-3 -10 -5 -4 -5 12 0 17
2 24 5 18 2 -7 2 -21 0 -30z m-77 11 c0 -8 -4 -12 -10 -9 -5 3 -10 10 -10 16
0 5 5 9 10 9 6 0 10 -7 10 -16z m24 -36 c-7 -59 -16 -62 -13 -5 2 26 6 47 10
47 4 0 6 -19 3 -42z m27 6 c-9 -28 -9 -29 -10 -3 -1 14 2 29 6 32 11 12 13 2
4 -29z m-81 1 c0 -8 -4 -15 -10 -15 -5 0 -10 7 -10 15 0 8 5 15 10 15 6 0 10
-7 10 -15z m30 -5 c0 -5 -4 -10 -10 -10 -5 0 -10 5 -10 10 0 6 5 10 10 10 6 0
10 -4 10 -10z m120 -22 c0 -4 -9 -8 -21 -8 -11 0 -18 4 -15 8 3 5 12 9 21 9 8
0 15 -4 15 -9z m217 -10 c-3 -8 -6 -5 -6 6 -1 11 2 17 5 13 3 -3 4 -12 1 -19z
m-380 -25 c-3 -10 -5 -4 -5 12 0 17 2 24 5 18 2 -7 2 -21 0 -30z m30 15 c-3
-8 -6 -5 -6 6 -1 11 2 17 5 13 3 -3 4 -12 1 -19z m503 -35 c-1 -24 -2 -26 -11
-10 -5 9 -7 22 -4 27 10 17 15 11 15 -17z m-470 13 c0 -3 -4 -8 -10 -11 -5 -3
-10 -1 -10 4 0 6 5 11 10 11 6 0 10 -2 10 -4z m-193 -58 c-3 -8 -6 -5 -6 6 -1
11 2 17 5 13 3 -3 4 -12 1 -19z m159 -158 c-15 -104 -15 -104 -10 -25 6 104
17 188 21 155 2 -14 -3 -72 -11 -130z m411 108 c-3 -8 -6 -5 -6 6 -1 11 2 17
5 13 3 -3 4 -12 1 -19z m93 -98 c0 -5 -2 -10 -4 -10 -3 0 -8 5 -11 10 -3 6 -1
10 4 10 6 0 11 -4 11 -10z m112 -25 c3 -14 1 -28 -3 -31 -5 -3 -9 -2 -9 3 0 4
-3 18 -6 31 -4 12 -2 22 4 22 5 0 12 -11 14 -25z m-64 -25 c6 -22 12 -52 13
-67 0 -16 4 -37 9 -48 15 -35 12 56 -4 108 -11 36 -11 47 -2 47 7 0 13 -6 14
-12 0 -7 3 -22 6 -33 2 -11 5 -35 5 -52 1 -20 6 -33 14 -33 8 0 23 -32 36 -77
13 -43 26 -84 28 -90 3 -7 1 -13 -4 -13 -8 0 -53 133 -53 158 0 6 -4 12 -9 12
-10 0 -3 -33 22 -117 9 -29 12 -53 6 -53 -5 0 -9 7 -9 16 0 10 -6 14 -14 11
-9 -4 -17 2 -21 13 -4 11 -12 17 -21 13 -7 -3 -14 0 -14 6 0 6 6 10 13 9 7 -2
11 6 9 22 -2 20 2 16 18 -15 11 -22 18 -31 15 -20 -14 65 -18 73 -30 69 -9 -4
-15 8 -20 38 -4 24 -13 65 -21 92 -16 58 -16 56 -6 56 4 0 13 -18 20 -40z
m-38 20 c0 -5 -4 -10 -10 -10 -5 0 -10 5 -10 10 0 6 5 10 10 10 6 0 10 -4 10
-10z m195 -29 c3 -5 1 -12 -5 -16 -5 -3 -10 1 -10 9 0 18 6 21 15 7z m-188
-43 c-3 -8 -6 -5 -6 6 -1 11 2 17 5 13 3 -3 4 -12 1 -19z m-830 -40 c-3 -7 -5
-2 -5 12 0 14 2 19 5 13 2 -7 2 -19 0 -25z m294 -91 c-8 -8 -11 3 -11 35 0 71
14 94 18 29 2 -30 -2 -59 -7 -64z m549 103 c0 -5 -2 -10 -4 -10 -3 0 -8 5 -11
10 -3 6 -1 10 4 10 6 0 11 -4 11 -10z m-400 -46 c-5 -21 -14 -40 -20 -44 -7
-4 9 -21 42 -42 70 -47 96 -75 76 -83 -15 -6 -25 -86 -34 -269 -2 -43 -10 -91
-18 -107 -8 -16 -12 -37 -9 -47 3 -13 -11 -35 -45 -71 -27 -28 -53 -51 -59
-51 -5 0 -20 -9 -33 -20 -13 -11 -27 -20 -32 -20 -11 0 -10 121 2 233 15 138
50 495 50 511 0 24 29 46 60 46 27 0 28 -1 20 -36z m405 16 c3 -5 1 -10 -4
-10 -6 0 -11 5 -11 10 0 6 2 10 4 10 3 0 8 -4 11 -10z m12 -72 c-3 -8 -6 -5
-6 6 -1 11 2 17 5 13 3 -3 4 -12 1 -19z m-1102 -8 c3 -5 1 -10 -4 -10 -6 0
-11 5 -11 10 0 6 2 10 4 10 3 0 8 -4 11 -10z m1075 0 c0 -5 -2 -10 -4 -10 -3
0 -8 5 -11 10 -3 6 -1 10 4 10 6 0 11 -4 11 -10z m47 -62 c-3 -8 -6 -5 -6 6
-1 11 2 17 5 13 3 -3 4 -12 1 -19z m131 -14 c0 -18 -3 -22 -9 -13 -11 18 -11
39 0 39 5 0 9 -12 9 -26z m-1048 6 c0 -5 -2 -10 -4 -10 -3 0 -8 5 -11 10 -3 6
-1 10 4 10 6 0 11 -4 11 -10z m157 -27 c-3 -10 -5 -4 -5 12 0 17 2 24 5 18 2
-7 2 -21 0 -30z m-142 -10 c7 -17 8 -16 15 2 7 18 8 18 15 -7 4 -16 11 -28 17
-28 5 0 6 5 3 10 -3 6 -2 10 3 10 17 0 42 -67 40 -104 -4 -46 -18 -47 -18 -2
0 19 -4 38 -10 41 -5 3 -10 -3 -10 -14 0 -12 -5 -21 -11 -21 -5 0 -8 4 -5 9 3
5 -1 26 -9 47 l-15 39 6 -47 c4 -34 3 -48 -5 -48 -7 0 -10 4 -6 10 3 5 -3 34
-13 65 -10 30 -16 55 -12 55 5 0 11 -8 15 -17z m121 -105 l3 -53 -13 50 c-7
28 -19 62 -26 75 l-12 25 22 -22 c17 -16 24 -35 26 -75z m34 72 c8 -16 8 -20
-2 -18 -8 2 -12 -6 -10 -22 2 -21 0 -20 -13 9 -8 19 -13 36 -10 39 3 3 5 0 5
-6 0 -7 5 -12 11 -12 6 0 9 7 5 15 -8 22 2 18 14 -5z m1010 -15 c0 -8 -4 -15
-10 -15 -5 0 -10 7 -10 15 0 8 5 15 10 15 6 0 10 -7 10 -15z m-60 -20 c0 -16
28 -27 43 -18 7 3 9 3 5 -2 -4 -4 -3 -14 3 -22 8 -9 8 -13 1 -13 -6 0 -14 5
-18 11 -5 8 -8 8 -13 0 -5 -7 -12 -2 -21 14 -14 27 -33 35 -24 10 4 -8 1 -15
-5 -15 -6 0 -11 7 -11 15 0 8 -4 15 -10 15 -23 0 -8 -38 19 -50 16 -6 32 -18
35 -26 6 -16 -7 -11 -35 13 -15 12 -17 11 -23 -11 -6 -25 -20 -27 -73 -11 -18
6 -21 11 -12 26 5 10 16 19 24 19 18 0 19 12 3 28 -8 8 -8 12 -1 12 6 0 13 -7
17 -15 3 -8 10 -15 15 -15 6 0 8 7 5 15 -5 11 3 17 25 21 17 4 28 10 25 15 -3
5 2 6 10 3 9 -3 16 -12 16 -19z m30 9 c0 -8 -4 -12 -10 -9 -5 3 -10 10 -10 16
0 5 5 9 10 9 6 0 10 -7 10 -16z m-1246 -31 c-1 -16 -3 -37 -3 -47 -2 -34 -14
-7 -16 34 -1 24 2 40 9 40 7 0 11 -12 10 -27z m791 -12 c3 -5 1 -12 -5 -16 -5
-3 -10 1 -10 9 0 18 6 21 15 7z m-525 -26 c0 -14 -2 -25 -4 -25 -2 0 -6 11 -8
25 -3 14 -1 25 3 25 5 0 9 -11 9 -25z m1069 -11 c26 -30 23 -44 -4 -14 -10 11
-24 20 -32 20 -7 0 -13 5 -13 10 0 19 26 10 49 -16z m-1269 -4 c0 -5 -2 -10
-4 -10 -3 0 -8 5 -11 10 -3 6 -1 10 4 10 6 0 11 -4 11 -10z m232 -20 c-2 -16
-6 -30 -8 -30 -2 0 -4 14 -4 30 0 17 4 30 8 30 5 0 7 -13 4 -30z m32 -5 c3 -8
1 -15 -4 -15 -6 0 -10 7 -10 15 0 8 2 15 4 15 2 0 6 -7 10 -15z m696 -40 c0
-8 -7 -15 -15 -15 -13 0 -14 3 -3 15 16 18 18 18 18 0z m-733 -62 c-2 -16 -4
-5 -4 22 0 28 2 40 4 28 2 -13 2 -35 0 -50z m-88 -22 c1 -13 -2 -22 -5 -18 -3
3 -6 8 -5 11 0 3 -4 19 -9 35 -4 16 -5 32 -2 36 8 8 20 -29 21 -64z m31 17 c0
-52 -13 -41 -17 13 -1 24 2 37 7 34 6 -3 10 -25 10 -47z m-170 32 c0 -5 -2
-10 -4 -10 -3 0 -8 5 -11 10 -3 6 -1 10 4 10 6 0 11 -4 11 -10z m200 -32 c0
-23 -3 -39 -6 -36 -9 10 -12 78 -3 78 5 0 9 -19 9 -42z m63 12 c-7 -28 -13
-25 -13 6 0 14 4 23 9 20 5 -3 7 -15 4 -26z m664 8 c-3 -8 -6 -5 -6 6 -1 11 2
17 5 13 3 -3 4 -12 1 -19z m33 -8 c0 -5 -5 -10 -11 -10 -5 0 -7 -4 -4 -10 3
-5 -1 -10 -9 -10 -14 0 -14 3 -4 20 14 21 28 27 28 10z m-60 -90 c0 -5 -5 -10
-11 -10 -5 0 -7 5 -4 10 3 6 8 10 11 10 2 0 4 -4 4 -10z m64 -25 c-4 -8 -10
-12 -15 -9 -11 6 -2 24 11 24 5 0 7 -7 4 -15z m196 -99 c1 19 1 19 15 0 8 -11
15 -25 15 -30 0 -6 -4 -5 -9 3 -6 10 -10 10 -16 1 -5 -8 -11 -6 -21 7 -7 10
-13 23 -13 28 0 6 6 1 14 -9 15 -20 15 -20 15 0z m-913 -38 c-3 -8 -6 -5 -6 6
-1 11 2 17 5 13 3 -3 4 -12 1 -19z m118 -127 c5 -18 6 -18 42 0 39 20 56 17
46 -6 -3 -9 1 -15 9 -15 15 0 45 -30 65 -67 16 -29 19 -103 6 -128 -6 -11 -13
-24 -15 -30 -1 -5 -20 -10 -40 -9 -25 0 -38 -4 -38 -12 0 -7 -5 -16 -11 -20
-8 -5 -10 3 -7 24 2 17 2 33 -2 34 -13 6 -71 162 -67 180 3 10 -1 25 -9 32 -8
8 -14 19 -14 25 0 19 28 12 35 -8z m-742 -42 c-6 -6 -22 -17 -35 -23 -12 -6
-23 -21 -24 -31 -2 -48 -5 -56 -13 -51 -11 7 -24 93 -16 106 3 5 27 10 53 10
34 0 43 -3 35 -11z m-53 -186 c0 -23 -5 -33 -15 -33 -8 0 -15 -7 -15 -15 0
-21 -17 -19 -30 4 -17 32 -11 58 17 81 31 24 43 14 43 -37z m-204 20 c3 -16
10 -40 14 -55 7 -22 6 -28 -5 -28 -8 0 -17 15 -20 38 -4 20 -9 45 -12 55 -2 9
0 17 6 17 6 0 13 -12 17 -27z m1214 15 c-1 -18 -25 -48 -38 -48 -6 0 -5 12 4
30 16 30 34 40 34 18z m-1271 -91 c1 -25 -10 -15 -33 27 -16 31 -17 38 -5 52
13 15 15 13 26 -22 6 -21 12 -47 12 -57z m876 -27 c-5 -8 -11 -8 -17 -2 -6 6
-7 16 -3 22 5 8 11 8 17 2 6 -6 7 -16 3 -22z m-603 -27 c5 -25 -3 -63 -13 -63
-12 0 -23 46 -15 65 7 20 24 19 28 -2z m1085 -59 c4 -47 3 -48 -10 -24 -8 14
-18 43 -21 65 -7 37 -6 39 9 24 10 -10 19 -38 22 -65z m-687 57 c0 -9 -41 -23
-48 -16 -2 2 -1 8 3 14 8 13 45 15 45 2z m80 -11 c0 -5 -2 -10 -4 -10 -3 0 -8
5 -11 10 -3 6 -1 10 4 10 6 0 11 -4 11 -10z m-731 -70 l-1 -35 -8 30 c-4 17
-8 39 -9 50 -1 16 1 17 9 5 5 -8 9 -31 9 -50z m951 46 c0 -3 -4 -8 -10 -11 -5
-3 -10 -1 -10 4 0 6 5 11 10 11 6 0 10 -2 10 -4z"/>
<path d="M4100 1440 c0 -5 5 -10 10 -10 6 0 10 5 10 10 0 6 -4 10 -10 10 -5 0
-10 -4 -10 -10z"/>
<path d="M4055 1430 c-3 -5 1 -10 10 -10 9 0 13 5 10 10 -3 6 -8 10 -10 10 -2
0 -7 -4 -10 -10z"/>
<path d="M3628 2775 c-3 -14 -1 -28 3 -31 5 -3 9 9 9 25 0 38 -6 40 -12 6z"/>
<path d="M3692 2760 c0 -19 2 -27 5 -17 2 9 2 25 0 35 -3 9 -5 1 -5 -18z"/>
<path d="M3751 2774 c0 -11 3 -14 6 -6 3 7 2 16 -1 19 -3 4 -6 -2 -5 -13z"/>
<path d="M2982 2750 c0 -14 2 -19 5 -12 2 6 2 18 0 25 -3 6 -5 1 -5 -13z"/>
<path d="M3590 2735 c0 -14 2 -25 4 -25 2 0 6 11 8 25 3 14 1 25 -3 25 -5 0
-9 -11 -9 -25z"/>
<path d="M3562 2730 c0 -14 2 -19 5 -12 2 6 2 18 0 25 -3 6 -5 1 -5 -13z"/>
<path d="M3746 2728 c-7 -26 -8 -73 -2 -67 6 6 18 89 13 89 -3 0 -7 -10 -11
-22z"/>
<path d="M3462 2715 c0 -16 2 -22 5 -12 2 9 2 23 0 30 -3 6 -5 -1 -5 -18z"/>
<path d="M3880 2730 c0 -5 5 -10 11 -10 5 0 7 5 4 10 -3 6 -8 10 -11 10 -2 0
-4 -4 -4 -10z"/>
<path d="M2812 2710 c0 -14 2 -19 5 -12 2 6 2 18 0 25 -3 6 -5 1 -5 -13z"/>
<path d="M2912 2710 c0 -14 2 -19 5 -12 2 6 2 18 0 25 -3 6 -5 1 -5 -13z"/>
<path d="M3250 2689 c0 -48 6 -49 13 -2 3 18 1 35 -4 39 -5 3 -9 -14 -9 -37z"/>
<path d="M3280 2720 c0 -5 5 -10 10 -10 6 0 10 5 10 10 0 6 -4 10 -10 10 -5 0
-10 -4 -10 -10z"/>
<path d="M3323 2670 c0 -36 2 -50 4 -32 2 17 2 47 0 65 -2 17 -4 3 -4 -33z"/>
<path d="M3391 2714 c0 -11 3 -14 6 -6 3 7 2 16 -1 19 -3 4 -6 -2 -5 -13z"/>
<path d="M3682 2690 c0 -19 2 -27 5 -17 2 9 2 25 0 35 -3 9 -5 1 -5 -18z"/>
<path d="M3846 2708 c3 -5 10 -6 15 -3 13 9 11 12 -6 12 -8 0 -12 -4 -9 -9z"/>
<path d="M3291 2684 c0 -11 3 -14 6 -6 3 7 2 16 -1 19 -3 4 -6 -2 -5 -13z"/>
<path d="M3873 2685 c-10 -10 -9 -16 4 -27 14 -11 16 -11 9 1 -5 8 -4 16 4 21
7 4 8 10 4 13 -5 3 -14 -1 -21 -8z"/>
<path d="M2982 2670 c0 -14 2 -19 5 -12 2 6 2 18 0 25 -3 6 -5 1 -5 -13z"/>
<path d="M3350 2648 c0 -49 5 -47 13 5 3 20 2 37 -4 37 -5 0 -9 -19 -9 -42z"/>
<path d="M3836 2665 c-3 -8 -2 -14 3 -12 4 1 19 -11 34 -28 36 -40 34 -27 -2
19 -22 27 -30 32 -35 21z"/>
<path d="M3388 2637 c-3 -13 -1 -32 3 -43 5 -13 8 -7 8 24 1 46 -4 55 -11 19z"/>
<path d="M3423 2595 c0 -33 2 -45 4 -27 2 18 2 45 0 60 -2 15 -4 0 -4 -33z"/>
<path d="M2600 2610 c0 -11 2 -20 4 -20 2 0 6 9 9 20 3 11 1 20 -4 20 -5 0 -9
-9 -9 -20z"/>
<path d="M3730 2620 c0 -5 5 -10 10 -10 6 0 10 5 10 10 0 6 -4 10 -10 10 -5 0
-10 -4 -10 -10z"/>
<path d="M3292 2585 c0 -16 2 -22 5 -12 2 9 2 23 0 30 -3 6 -5 -1 -5 -18z"/>
<path d="M3755 2580 c3 -5 8 -10 11 -10 2 0 4 5 4 10 0 6 -5 10 -11 10 -5 0
-7 -4 -4 -10z"/>
<path d="M2570 2569 c0 -5 5 -7 10 -4 6 3 10 8 10 11 0 2 -4 4 -10 4 -5 0 -10
-5 -10 -11z"/>
<path d="M3452 2560 c0 -14 2 -19 5 -12 2 6 2 18 0 25 -3 6 -5 1 -5 -13z"/>
<path d="M3855 2560 c3 -5 8 -10 11 -10 2 0 4 5 4 10 0 6 -5 10 -11 10 -5 0
-7 -4 -4 -10z"/>
<path d="M2490 2498 c0 -35 12 -30 17 7 2 14 -1 25 -7 25 -5 0 -10 -14 -10
-32z"/>
<path d="M3486 2505 c4 -8 8 -15 10 -15 2 0 4 7 4 15 0 8 -4 15 -10 15 -5 0
-7 -7 -4 -15z"/>
<path d="M3760 2513 c0 -5 8 -17 17 -28 14 -18 15 -18 9 -2 -3 10 -6 23 -6 28
0 5 -4 9 -10 9 -5 0 -10 -3 -10 -7z"/>
<path d="M2463 2475 c0 -22 2 -30 4 -17 2 12 2 30 0 40 -3 9 -5 -1 -4 -23z"/>
<path d="M3522 2490 c0 -14 2 -19 5 -12 2 6 2 18 0 25 -3 6 -5 1 -5 -13z"/>
<path d="M3552 2480 c0 -19 2 -27 5 -17 2 9 2 25 0 35 -3 9 -5 1 -5 -18z"/>
<path d="M3429 2448 c0 -18 -2 -61 -3 -95 -1 -35 2 -63 6 -63 5 0 8 43 8 95 0
52 -2 95 -5 95 -3 0 -5 -15 -6 -32z"/>
<path d="M3810 2431 c0 -10 29 -36 34 -30 1 2 -6 12 -16 22 -10 9 -18 13 -18
8z"/>
<path d="M2700 2400 c0 -5 5 -10 11 -10 5 0 7 5 4 10 -3 6 -8 10 -11 10 -2 0
-4 -4 -4 -10z"/>
<path d="M2700 2290 c0 -51 2 -91 5 -88 7 7 8 168 1 176 -3 3 -6 -37 -6 -88z"/>
<path d="M3231 2364 c0 -11 3 -14 6 -6 3 7 2 16 -1 19 -3 4 -6 -2 -5 -13z"/>
<path d="M3301 2354 c0 -11 3 -14 6 -6 3 7 2 16 -1 19 -3 4 -6 -2 -5 -13z"/>
<path d="M2565 2280 c0 -29 3 -39 14 -37 8 1 17 -9 21 -23 6 -25 7 -25 14 -3
4 13 13 20 20 17 15 -6 29 43 14 52 -4 3 -6 9 -3 14 8 13 -38 20 -52 8 -9 -7
-13 -7 -13 1 0 6 -3 11 -8 11 -4 0 -7 -18 -7 -40z"/>
<path d="M3233 2245 c0 -38 2 -53 4 -32 2 20 2 52 0 70 -2 17 -4 1 -4 -38z"/>
<path d="M3190 2235 c0 -8 5 -15 10 -15 6 0 10 7 10 15 0 8 -4 15 -10 15 -5 0
-10 -7 -10 -15z"/>
<path d="M3093 2175 c0 -27 2 -38 4 -22 2 15 2 37 0 50 -2 12 -4 0 -4 -28z"/>
<path d="M1590 2204 c0 -6 11 -16 25 -22 15 -7 25 -20 25 -32 0 -11 5 -20 11
-20 6 0 9 6 6 14 -3 8 -1 16 5 18 19 7 -1 28 -26 28 -12 0 -27 5 -34 12 -7 7
-12 8 -12 2z"/>
<path d="M2701 2174 c0 -11 3 -14 6 -6 3 7 2 16 -1 19 -3 4 -6 -2 -5 -13z"/>
<path d="M1699 2180 c-1 -3 -2 -17 -3 -32 -1 -15 -5 -30 -9 -34 -4 -4 -7 -17
-8 -28 0 -20 -1 -20 -9 2 -22 53 -22 -4 -1 -75 8 -27 7 -33 -6 -33 -9 0 -13 6
-10 15 4 8 2 17 -2 19 -5 3 -14 -36 -21 -87 -7 -50 -15 -97 -17 -104 -3 -7 -1
-13 5 -13 8 0 20 66 26 142 1 3 5 10 10 15 8 7 4 -53 -8 -132 -3 -16 -7 -47
-10 -69 -3 -21 -8 -47 -11 -57 -4 -11 -2 -19 4 -19 6 0 11 9 11 21 0 11 4 18
9 15 13 -9 1 -46 -15 -46 -8 0 -14 -7 -14 -15 0 -8 -5 -15 -11 -15 -6 0 -8 8
-5 18 11 36 15 92 6 92 -6 0 -10 -11 -10 -24 0 -14 -7 -55 -15 -93 -9 -37 -18
-78 -20 -90 -3 -13 -10 -23 -16 -23 -6 0 -9 7 -6 15 4 8 2 17 -3 20 -6 4 -10
-3 -10 -13 0 -11 -7 -25 -15 -32 -13 -11 -14 -10 -9 4 3 9 2 16 -4 16 -8 0
-22 -22 -22 -35 0 -1 10 -6 23 -10 12 -4 24 -8 27 -10 3 -1 13 -5 23 -9 9 -5
17 -14 17 -22 0 -8 5 -14 10 -14 6 0 10 -5 10 -11 0 -5 -4 -7 -10 -4 -5 3 -11
-4 -11 -17 -1 -19 -3 -18 -9 7 -4 17 -8 22 -9 13 0 -9 -5 -28 -10 -42 -10 -24
-11 -24 -55 -11 l-44 14 4 -25 c4 -22 1 -24 -31 -24 -21 0 -34 -4 -30 -10 3
-5 43 -8 88 -7 68 2 90 -2 130 -21 26 -13 47 -28 47 -34 0 -7 -4 -7 -13 0 -7
6 -24 15 -38 21 -20 7 -26 6 -26 -5 0 -12 47 -53 146 -128 12 -9 13 -3 7 39
-6 38 -16 59 -44 89 -33 35 -35 38 -13 33 23 -6 24 -5 19 57 -5 55 -3 65 18
89 13 15 25 27 27 27 2 0 12 -28 22 -62 23 -85 27 -89 40 -37 12 49 0 109 -22
109 -13 0 -14 2 -19 60 -1 19 -7 36 -12 38 -7 2 -9 37 -7 90 16 364 17 352
-10 427 -13 39 -25 68 -26 65z m-6 -150 c3 -11 1 -23 -4 -26 -5 -3 -9 1 -9 10
0 8 -3 22 -7 32 -4 11 -3 15 4 11 6 -4 13 -16 16 -27z m17 -75 c0 -5 -5 -3
-10 5 -5 8 -10 20 -10 25 0 6 5 3 10 -5 5 -8 10 -19 10 -25z m-27 -60 c-3 -13
-9 -23 -13 -20 -4 2 -5 16 -3 30 3 13 9 23 13 20 4 -2 5 -16 3 -30z m5 -53
c-9 -2 -19 -13 -21 -25 -3 -16 -5 -13 -6 10 -1 28 1 30 22 25 17 -5 18 -7 5
-10z m12 -36 c0 -3 -4 -8 -10 -11 -5 -3 -10 -1 -10 4 0 6 5 11 10 11 6 0 10
-2 10 -4z m-31 -23 c0 -5 -4 -17 -9 -28 -8 -18 -9 -17 -9 8 -1 15 4 27 9 27 6
0 10 -3 9 -7z m8 -65 c-3 -7 -5 -2 -5 12 0 14 2 19 5 13 2 -7 2 -19 0 -25z
m-77 -138 c-10 -54 -16 -67 -25 -59 -2 3 3 31 12 62 20 71 27 69 13 -3z m27
18 c-3 -7 -5 -2 -5 12 0 14 2 19 5 13 2 -7 2 -19 0 -25z m-15 -90 c-7 -7 -12
-8 -12 -2 0 6 3 14 7 17 3 4 9 5 12 2 2 -3 -1 -11 -7 -17z m-55 -160 c-3 -7
-5 -2 -5 12 0 14 2 19 5 13 2 -7 2 -19 0 -25z m30 0 c-3 -7 -5 -2 -5 12 0 14
2 19 5 13 2 -7 2 -19 0 -25z m33 12 c0 -5 -5 -10 -11 -10 -5 0 -7 5 -4 10 3 6
8 10 11 10 2 0 4 -4 4 -10z m-9 -97 c13 -16 12 -17 -3 -4 -17 13 -22 21 -14
21 2 0 10 -8 17 -17z"/>
<path d="M4045 2170 l-40 -7 40 -1 c22 0 58 3 80 7 l40 9 -40 -1 c-22 0 -58
-3 -80 -7z"/>
<path d="M1605 2160 c3 -5 8 -10 11 -10 2 0 4 5 4 10 0 6 -5 10 -11 10 -5 0
-7 -4 -4 -10z"/>
<path d="M2496 2140 c-5 -19 -11 -29 -13 -22 -10 27 -23 10 -24 -30 l-1 -43
-13 45 c-14 47 -18 38 -17 -39 0 -25 -2 -31 -9 -20 -5 8 -9 24 -9 37 0 12 -4
22 -9 22 -5 0 -7 -25 -6 -55 2 -30 -1 -55 -6 -55 -5 0 -9 13 -9 29 0 17 -5 33
-12 37 -8 5 -9 -4 -4 -34 8 -52 -8 -55 -23 -4 l-10 37 2 -53 c1 -28 -1 -52 -5
-52 -5 0 -8 7 -8 15 0 8 -4 15 -9 15 -6 0 -8 -25 -5 -57 2 -31 1 -53 -4 -49
-7 8 -9 14 -11 46 0 11 -5 20 -10 20 -9 0 -8 -16 4 -90 2 -14 4 -32 4 -40 1
-13 2 -13 11 0 5 8 7 23 4 33 -3 9 -1 17 5 17 5 0 12 -8 14 -17 3 -10 6 9 7
42 2 33 5 48 7 33 2 -16 9 -28 15 -28 7 0 9 15 5 40 -3 22 -1 40 4 40 5 0 9
-13 9 -30 0 -16 5 -30 10 -30 6 0 10 16 10 36 0 21 4 33 10 29 6 -4 8 -10 5
-15 -3 -5 -1 -11 5 -15 6 -3 10 3 10 15 0 16 5 20 15 16 8 -3 16 0 17 7 0 7 2
19 2 27 1 8 7 14 14 13 7 -2 12 3 12 11 0 8 7 22 16 30 11 11 14 31 12 68 -3
53 -3 53 -12 18z m-56 -151 c0 -5 -4 -9 -10 -9 -5 0 -10 7 -10 16 0 8 5 12 10
9 6 -3 10 -10 10 -16z"/>
<path d="M3960 2159 c0 -5 5 -7 10 -4 6 3 10 8 10 11 0 2 -4 4 -10 4 -5 0 -10
-5 -10 -11z"/>
<path d="M2699 2095 c-4 -67 5 -328 10 -280 8 80 10 283 2 310 -7 26 -9 23
-12 -30z"/>
<path d="M4020 2140 c-21 -7 -19 -8 15 -7 82 2 136 -3 130 -13 -3 -5 -18 -10
-33 -11 -24 0 -25 -1 -7 -8 11 -5 24 -6 29 -3 5 3 7 -5 4 -16 -4 -12 -2 -22 3
-22 5 0 9 -8 10 -17 0 -13 3 -12 10 5 5 13 6 41 3 63 l-7 39 -66 -1 c-36 -1
-77 -5 -91 -9z m157 -62 c-3 -8 -6 -5 -6 6 -1 11 2 17 5 13 3 -3 4 -12 1 -19z"/>
<path d="M3021 2114 c0 -11 3 -14 6 -6 3 7 2 16 -1 19 -3 4 -6 -2 -5 -13z"/>
<path d="M2665 2110 c-3 -5 -1 -10 4 -10 6 0 11 5 11 10 0 6 -2 10 -4 10 -3 0
-8 -4 -11 -10z"/>
<path d="M3051 2085 c-1 -22 -4 -53 -6 -69 -3 -19 -1 -26 6 -19 6 6 8 37 6 69
-2 45 -4 50 -6 19z"/>
<path d="M4038 2103 c6 -2 18 -2 25 0 6 3 1 5 -13 5 -14 0 -19 -2 -12 -5z"/>
<path d="M2531 2074 c0 -11 3 -14 6 -6 3 7 2 16 -1 19 -3 4 -6 -2 -5 -13z"/>
<path d="M2565 2081 c-3 -5 -1 -12 5 -16 5 -3 10 1 10 9 0 18 -6 21 -15 7z"/>
<path d="M2601 2074 c0 -11 3 -14 6 -6 3 7 2 16 -1 19 -3 4 -6 -2 -5 -13z"/>
<path d="M2671 2074 c0 -11 3 -14 6 -6 3 7 2 16 -1 19 -3 4 -6 -2 -5 -13z"/>
<path d="M3010 2080 c0 -5 5 -10 10 -10 6 0 10 5 10 10 0 6 -4 10 -10 10 -5 0
-10 -4 -10 -10z"/>
<path d="M3960 2069 c0 -5 9 -9 20 -9 11 0 20 2 20 4 0 2 -9 6 -20 9 -11 3
-20 1 -20 -4z"/>
<path d="M2733 1990 c-1 -44 2 -80 8 -80 5 0 9 36 9 80 0 44 -3 80 -8 80 -4 0
-8 -36 -9 -80z"/>
<path d="M3010 2044 c0 -8 5 -12 10 -9 6 4 8 11 5 16 -9 14 -15 11 -15 -7z"/>
<path d="M2603 2000 c0 -30 2 -43 4 -27 2 15 2 39 0 55 -2 15 -4 2 -4 -28z"/>
<path d="M2673 2005 c0 -27 2 -38 4 -22 2 15 2 37 0 50 -2 12 -4 0 -4 -28z"/>
<path d="M3995 2040 c-3 -5 -1 -10 4 -10 6 0 11 5 11 10 0 6 -2 10 -4 10 -3 0
-8 -4 -11 -10z"/>
<path d="M4192 2020 c0 -19 2 -27 5 -17 2 9 2 25 0 35 -3 9 -5 1 -5 -18z"/>
<path d="M2261 2024 c0 -11 3 -14 6 -6 3 7 2 16 -1 19 -3 4 -6 -2 -5 -13z"/>
<path d="M3011 2004 c0 -11 3 -14 6 -6 3 7 2 16 -1 19 -3 4 -6 -2 -5 -13z"/>
<path d="M2532 1985 c0 -16 2 -22 5 -12 2 9 2 23 0 30 -3 6 -5 -1 -5 -18z"/>
<path d="M2560 2000 c0 -5 5 -10 10 -10 6 0 10 5 10 10 0 6 -4 10 -10 10 -5 0
-10 -4 -10 -10z"/>
<path d="M2770 1960 c0 -29 2 -51 4 -49 8 8 10 88 3 95 -4 4 -7 -17 -7 -46z"/>
<path d="M2843 1950 c0 -25 2 -35 4 -22 2 12 2 32 0 45 -2 12 -4 2 -4 -23z"/>
<path d="M2565 1970 c3 -5 8 -10 11 -10 2 0 4 5 4 10 0 6 -5 10 -11 10 -5 0
-7 -4 -4 -10z"/>
<path d="M2800 1960 c0 -5 5 -10 10 -10 6 0 10 5 10 10 0 6 -4 10 -10 10 -5 0
-10 -4 -10 -10z"/>
<path d="M2805 1931 c-3 -5 -1 -12 5 -16 5 -3 10 1 10 9 0 18 -6 21 -15 7z"/>
<path d="M2870 1920 c0 -5 5 -10 11 -10 5 0 7 5 4 10 -3 6 -8 10 -11 10 -2 0
-4 -4 -4 -10z"/>
<path d="M4071 1894 c0 -11 3 -14 6 -6 3 7 2 16 -1 19 -3 4 -6 -2 -5 -13z"/>
<path d="M4120 1900 c-9 -6 -10 -10 -3 -10 6 0 15 5 18 10 8 12 4 12 -15 0z"/>
<path d="M1996 1867 c3 -10 9 -15 12 -12 3 3 0 11 -7 18 -10 9 -11 8 -5 -6z"/>
<path d="M4140 1870 c0 -5 5 -10 10 -10 6 0 10 5 10 10 0 6 -4 10 -10 10 -5 0
-10 -4 -10 -10z"/>
<path d="M1591 1854 c0 -11 3 -14 6 -6 3 7 2 16 -1 19 -3 4 -6 -2 -5 -13z"/>
<path d="M1970 1852 c6 -13 14 -21 18 -18 3 4 -2 14 -12 24 -18 16 -18 16 -6
-6z"/>
<path d="M4050 1850 c0 -11 -7 -20 -15 -20 -8 0 -15 -4 -15 -9 0 -6 9 -9 20
-8 15 1 20 8 20 29 0 15 -2 28 -5 28 -3 0 -5 -9 -5 -20z"/>
<path d="M4191 1840 c0 -8 4 -22 9 -30 12 -18 12 -2 0 25 -6 13 -9 15 -9 5z"/>
<path d="M1940 1836 c0 -2 7 -7 16 -10 8 -3 12 -2 9 4 -6 10 -25 14 -25 6z"/>
<path d="M1580 1819 c0 -5 5 -7 10 -4 6 3 10 8 10 11 0 2 -4 4 -10 4 -5 0 -10
-5 -10 -11z"/>
<path d="M1920 1820 c0 -5 5 -10 11 -10 5 0 7 5 4 10 -3 6 -8 10 -11 10 -2 0
-4 -4 -4 -10z"/>
<path d="M1890 1816 c0 -2 8 -10 18 -17 15 -13 16 -12 3 4 -13 16 -21 21 -21
13z"/>
<path d="M2593 1798 c-14 -19 -23 -59 -11 -52 5 3 12 -3 15 -15 6 -22 23 -29
23 -10 0 6 6 9 14 6 32 -12 25 54 -8 75 -16 11 -22 10 -33 -4z"/>
<path d="M4101 1794 c0 -11 3 -14 6 -6 3 7 2 16 -1 19 -3 4 -6 -2 -5 -13z"/>
<path d="M1611 1784 c0 -11 3 -14 6 -6 3 7 2 16 -1 19 -3 4 -6 -2 -5 -13z"/>
<path d="M1862 1784 c-14 -16 -5 -18 17 -5 7 5 9 11 5 14 -5 3 -15 -1 -22 -9z"/>
<path d="M4051 1789 c0 -8 4 -23 9 -34 8 -17 9 -16 7 7 -3 28 -18 53 -16 27z"/>
<path d="M1836 1757 c3 -10 9 -15 12 -12 3 3 0 11 -7 18 -10 9 -11 8 -5 -6z"/>
<path d="M4111 1764 c-2 -19 46 -144 52 -138 5 5 -2 31 -20 74 -3 8 -7 17 -8
20 -9 26 -24 53 -24 44z"/>
<path d="M1572 1735 c0 -16 2 -22 5 -12 2 9 2 23 0 30 -3 6 -5 -1 -5 -18z"/>
<path d="M1810 1740 c0 -5 5 -10 11 -10 5 0 7 5 4 10 -3 6 -8 10 -11 10 -2 0
-4 -4 -4 -10z"/>
<path d="M4065 1720 c3 -5 8 -10 11 -10 2 0 4 5 4 10 0 6 -5 10 -11 10 -5 0
-7 -4 -4 -10z"/>
<path d="M1560 1690 c0 -5 5 -10 10 -10 6 0 10 5 10 10 0 6 -4 10 -10 10 -5 0
-10 -4 -10 -10z"/>
<path d="M4251 1664 c0 -16 6 -39 15 -50 8 -10 12 -12 8 -4 -4 8 -11 30 -15
50 -7 35 -7 35 -8 4z"/>
<path d="M1557 1664 c-4 -4 -7 -19 -6 -33 l0 -26 10 24 c10 26 8 47 -4 35z"/>
<path d="M4270 1653 c0 -5 7 -18 15 -29 14 -18 15 -18 11 5 -3 23 -26 44 -26
24z"/>
<path d="M2570 1640 c0 -5 5 -10 10 -10 6 0 10 5 10 10 0 6 -4 10 -10 10 -5 0
-10 -4 -10 -10z"/>
<path d="M2535 1611 c-3 -5 -1 -12 5 -16 5 -3 10 1 10 9 0 18 -6 21 -15 7z"/>
<path d="M2574 1593 c2 -16 5 -67 5 -115 1 -49 5 -88 10 -88 5 0 8 19 6 43 -1
23 -3 75 -4 115 -1 42 -5 72 -11 72 -6 0 -9 -12 -6 -27z"/>
<path d="M2611 1515 c2 -61 6 -123 10 -140 5 -16 7 30 5 103 -2 73 -6 136 -10
140 -4 4 -6 -43 -5 -103z"/>
<path d="M2648 1598 c-5 -38 3 -168 11 -168 7 0 3 181 -4 188 -2 2 -5 -7 -7
-20z"/>
<path d="M2782 1544 c2 -51 7 -79 15 -82 10 -3 11 10 7 52 -4 38 -3 56 5 56 7
0 11 -21 11 -55 0 -30 4 -55 10 -55 10 0 6 148 -4 158 -4 3 -6 -4 -6 -16 0
-12 -4 -22 -10 -22 -5 0 -10 6 -10 14 0 8 -5 18 -10 21 -7 5 -10 -19 -8 -71z"/>
<path d="M2851 1565 c0 -27 4 -70 8 -95 l8 -45 3 40 c3 58 -1 105 -10 129 -7
16 -9 8 -9 -29z"/>
<path d="M1540 1590 c0 -5 5 -10 11 -10 5 0 7 5 4 10 -3 6 -8 10 -11 10 -2 0
-4 -4 -4 -10z"/>
<path d="M2891 1528 c-1 -39 3 -68 9 -68 12 0 12 74 0 110 -6 18 -8 7 -9 -42z"/>
<path d="M2540 1569 c0 -5 5 -7 10 -4 6 3 10 8 10 11 0 2 -4 4 -10 4 -5 0 -10
-5 -10 -11z"/>
<path d="M2501 1493 c1 -37 5 -78 8 -92 l5 -26 6 29 c8 43 0 156 -12 156 -5 0
-8 -28 -7 -67z"/>
<path d="M1461 1534 c0 -11 3 -14 6 -6 3 7 2 16 -1 19 -3 4 -6 -2 -5 -13z"/>
<path d="M2547 1440 c3 -63 7 -117 9 -119 8 -9 2 195 -6 214 -5 12 -6 -28 -3
-95z"/>
<path d="M2435 1487 c-4 -10 -3 -32 3 -50 8 -26 10 -28 11 -9 1 24 21 31 21 7
0 -8 5 -15 10 -15 6 0 10 18 10 41 0 28 -4 39 -12 36 -7 -2 -12 -11 -10 -21 2
-9 -2 -16 -7 -16 -5 0 -11 10 -14 23 -3 20 -4 20 -12 4z"/>
<path d="M2368 1443 c-7 -27 1 -63 14 -63 5 0 8 8 6 18 -2 11 3 16 15 14 12
-2 17 4 17 23 0 14 -4 25 -10 25 -5 0 -10 -7 -10 -15 0 -21 -18 -19 -22 3 -3
14 -5 13 -10 -5z"/>
<path d="M1253 1433 c9 -2 23 -2 30 0 6 3 -1 5 -18 5 -16 0 -22 -2 -12 -5z"/>
<path d="M2336 1383 c8 -52 14 -54 14 -5 0 23 -4 42 -10 42 -6 0 -7 -15 -4
-37z"/>
<path d="M1380 1399 c0 -5 9 -9 20 -9 11 0 20 2 20 4 0 2 -9 6 -20 9 -11 3
-20 1 -20 -4z"/>
<path d="M2650 1400 c0 -5 5 -10 10 -10 6 0 10 5 10 10 0 6 -4 10 -10 10 -5 0
-10 -4 -10 -10z"/>
<path d="M2755 1400 c3 -5 8 -10 11 -10 2 0 4 5 4 10 0 6 -5 10 -11 10 -5 0
-7 -4 -4 -10z"/>
<path d="M2820 1400 c0 -5 5 -10 11 -10 5 0 7 5 4 10 -3 6 -8 10 -11 10 -2 0
-4 -4 -4 -10z"/>
<path d="M4240 1400 c0 -5 5 -10 11 -10 5 0 7 5 4 10 -3 6 -8 10 -11 10 -2 0
-4 -4 -4 -10z"/>
<path d="M2300 1371 c0 -11 4 -22 9 -25 5 -3 9 6 9 19 0 14 -4 25 -9 25 -5 0
-9 -9 -9 -19z"/>
<path d="M1144 1360 c0 -11 4 -20 9 -20 4 0 5 -5 1 -12 -4 -7 -3 -8 4 -4 16
10 15 56 -1 56 -7 0 -13 -9 -13 -20z"/>
<path d="M2580 1371 c0 -5 5 -13 10 -16 6 -3 10 -2 10 4 0 5 -4 13 -10 16 -5
3 -10 2 -10 -4z"/>
<path d="M2650 1371 c0 -6 5 -13 10 -16 6 -3 10 1 10 9 0 9 -4 16 -10 16 -5 0
-10 -4 -10 -9z"/>
<path d="M2761 1364 c0 -11 3 -14 6 -6 3 7 2 16 -1 19 -3 4 -6 -2 -5 -13z"/>
<path d="M2791 1364 c0 -11 3 -14 6 -6 3 7 2 16 -1 19 -3 4 -6 -2 -5 -13z"/>
<path d="M2481 1354 c0 -11 3 -14 6 -6 3 7 2 16 -1 19 -3 4 -6 -2 -5 -13z"/>
<path d="M2510 1349 c0 -5 5 -7 10 -4 6 3 10 8 10 11 0 2 -4 4 -10 4 -5 0 -10
-5 -10 -11z"/>
<path d="M4241 1333 c-13 -28 -13 -28 8 -9 22 20 27 36 13 36 -5 0 -14 -12
-21 -27z"/>
<path d="M2241 1334 c0 -11 3 -14 6 -6 3 7 2 16 -1 19 -3 4 -6 -2 -5 -13z"/>
<path d="M2270 1340 c0 -5 5 -10 10 -10 6 0 10 5 10 10 0 6 -4 10 -10 10 -5 0
-10 -4 -10 -10z"/>
<path d="M4130 1340 c0 -5 7 -10 16 -10 8 0 12 5 9 10 -3 6 -10 10 -16 10 -5
0 -9 -4 -9 -10z"/>
<path d="M1786 1324 c-9 -24 -7 -54 4 -54 6 0 10 6 10 14 0 8 6 17 13 20 9 5
9 7 -1 12 -6 3 -10 10 -6 15 3 5 1 9 -4 9 -6 0 -13 -7 -16 -16z"/>
<path d="M2650 1330 c0 -5 5 -10 10 -10 6 0 10 5 10 10 0 6 -4 10 -10 10 -5 0
-10 -4 -10 -10z"/>
<path d="M2757 1333 c-3 -5 -1 -17 4 -28 7 -17 8 -17 8 8 1 27 -4 34 -12 20z"/>
<path d="M2790 1330 c0 -5 5 -10 11 -10 5 0 7 5 4 10 -3 6 -8 10 -11 10 -2 0
-4 -4 -4 -10z"/>
<path d="M4042 1320 c-15 -24 -15 -30 -1 -30 5 0 7 5 4 10 -3 6 1 13 9 16 9 3
16 10 16 15 0 16 -15 10 -28 -11z"/>
<path d="M4170 1320 c0 -5 5 -10 11 -10 5 0 7 5 4 10 -3 6 -8 10 -11 10 -2 0
-4 -4 -4 -10z"/>
<path d="M4270 1315 c0 -2 9 -19 20 -37 23 -39 27 -30 5 12 -14 27 -25 38 -25
25z"/>
<path d="M4070 1295 c-7 -9 -8 -15 -2 -15 5 0 12 7 16 15 3 8 4 15 2 15 -2 0
-9 -7 -16 -15z"/>
<path d="M2521 1284 c0 -11 3 -14 6 -6 3 7 2 16 -1 19 -3 4 -6 -2 -5 -13z"/>
<path d="M4097 1277 c-18 -23 -22 -37 -9 -37 9 0 35 50 30 56 -2 1 -11 -7 -21
-19z"/>
<path d="M4155 1290 c3 -5 8 -10 11 -10 2 0 4 5 4 10 0 6 -5 10 -11 10 -5 0
-7 -4 -4 -10z"/>
<path d="M4205 1280 c10 -11 13 -20 7 -20 -6 0 -14 5 -18 11 -4 8 -9 7 -14 -2
-6 -9 -12 -10 -22 -2 -9 8 -16 7 -25 -2 -7 -8 -9 -16 -4 -20 5 -3 11 1 14 7 3
10 7 10 19 0 13 -10 17 -10 22 0 5 10 7 10 12 1 8 -18 21 -16 28 3 3 8 0 22
-8 30 -22 22 -31 17 -11 -6z"/>
<path d="M2761 1264 c0 -11 3 -14 6 -6 3 7 2 16 -1 19 -3 4 -6 -2 -5 -13z"/>
<path d="M4245 1259 c-4 -6 -4 -13 -1 -16 3 -4 6 -1 6 7 0 10 4 10 18 -1 15
-13 16 -12 3 4 -16 20 -18 20 -26 6z"/>
<path d="M4146 1224 c-4 -11 3 -27 21 -46 23 -24 28 -26 36 -12 5 8 6 18 3 21
-3 4 -6 1 -6 -5 0 -7 -5 -12 -11 -12 -6 0 -8 8 -5 18 4 11 -1 25 -13 36 -17
16 -19 16 -25 0z m28 -19 c3 -8 1 -15 -3 -15 -5 0 -11 7 -15 15 -3 8 -1 15 3
15 5 0 11 -7 15 -15z"/>
<path d="M4195 1220 c3 -5 8 -10 11 -10 2 0 4 5 4 10 0 6 -5 10 -11 10 -5 0
-7 -4 -4 -10z"/>
<path d="M4306 1190 c3 -25 7 -56 9 -70 4 -23 3 -22 -10 5 l-14 30 -1 -35 c-3
-96 -8 -158 -15 -181 -7 -23 -6 -22 16 5 18 23 23 42 24 87 0 31 3 52 6 47 10
-16 17 13 11 49 -2 18 0 39 6 46 8 9 8 17 0 27 -8 13 -9 12 -5 -2 11 -32 -8
-29 -20 4 l-12 33 5 -45z"/>
<path d="M2550 1190 c0 -5 5 -10 10 -10 6 0 10 5 10 10 0 6 -4 10 -10 10 -5 0
-10 -4 -10 -10z"/>
<path d="M2940 1152 c0 -18 5 -32 10 -32 6 0 8 11 4 28 -10 39 -14 40 -14 4z"/>
<path d="M1583 1133 c9 -2 25 -2 35 0 9 3 1 5 -18 5 -19 0 -27 -2 -17 -5z"/>
<path d="M1210 1117 c-11 -8 -16 -32 -17 -79 -1 -38 1 -68 5 -68 4 0 8 -11 8
-25 3 -52 15 -91 35 -115 l20 -25 -15 31 c-23 47 -43 228 -29 264 6 17 11 30
10 30 -1 0 -9 -6 -17 -13z"/>
<path d="M1503 1120 c-32 -13 -29 -21 5 -10 56 18 58 18 37 19 -11 0 -30 -4
-42 -9z"/>
<path d="M1663 1110 c14 -11 49 -50 77 -86 29 -36 53 -64 55 -62 1 2 5 18 8
36 5 24 3 32 -8 32 -8 0 -19 9 -25 20 -13 24 -93 80 -116 80 -13 0 -11 -5 9
-20z"/>
<path d="M1422 1078 c-18 -11 -31 -23 -28 -25 2 -3 22 7 43 21 44 31 33 34
-15 4z"/>
<path d="M1767 1083 c13 -38 43 -58 43 -30 0 14 -31 47 -43 47 -3 0 -4 -8 0
-17z"/>
<path d="M2921 1073 c-1 -6 -10 -13 -21 -15 -27 -4 -27 -22 0 -26 21 -4 36 18
27 40 -4 9 -6 9 -6 1z"/>
<path d="M4337 1031 c-4 -17 -3 -21 5 -13 5 5 8 16 6 23 -3 8 -7 3 -11 -10z"/>
<path d="M4150 1020 c0 -5 5 -10 10 -10 6 0 10 5 10 10 0 6 -4 10 -10 10 -5 0
-10 -4 -10 -10z"/>
<path d="M1326 983 c-6 -14 -5 -15 5 -6 7 7 10 15 7 18 -3 3 -9 -2 -12 -12z"/>
<path d="M1857 973 c3 -10 11 -24 17 -32 6 -8 13 -39 16 -70 5 -51 7 -56 30
-59 24 -2 24 -2 6 13 -14 10 -20 28 -21 58 0 27 -7 51 -18 61 -9 10 -17 24
-17 32 0 8 -4 14 -10 14 -5 0 -7 -8 -3 -17z"/>
<path d="M1286 891 c-4 -5 -2 -29 3 -53 8 -35 7 -46 -7 -62 -9 -11 -12 -16 -6
-13 6 4 24 -5 38 -18 15 -14 31 -25 36 -25 4 0 17 -3 27 -6 10 -3 1 4 -19 16
-43 23 -50 34 -13 20 25 -9 25 -9 9 15 -10 15 -22 22 -32 18 -11 -3 -13 -2 -5
4 8 6 8 19 -1 55 -13 52 -21 65 -30 49z"/>
<path d="M1925 890 c3 -5 8 -10 11 -10 2 0 4 5 4 10 0 6 -5 10 -11 10 -5 0 -7
-4 -4 -10z"/>
<path d="M1202 820 c2 -7 15 -20 29 -29 l24 -16 -16 24 c-17 27 -44 42 -37 21z"/>
<path d="M4930 345 c-3 -116 -4 -212 -2 -214 10 -17 12 33 10 215 l-3 209 -5
-210z"/>
</g>
</svg>
